<mxfile host="app.diagrams.net" agent="Mozilla/5.0 (Windows NT 10.0; Win64; x64) AppleWebKit/537.36 (KHTML, like Gecko) Chrome/137.0.0.0 Safari/537.36" version="27.1.6">
  <diagram name="Page-1" id="efa7a0a1-bf9b-a30e-e6df-94a7791c09e9">
    <mxGraphModel dx="2037" dy="1073" grid="1" gridSize="10" guides="1" tooltips="1" connect="1" arrows="1" fold="1" page="1" pageScale="1" pageWidth="826" pageHeight="1169" background="none" math="0" shadow="0">
      <root>
        <mxCell id="0" />
        <mxCell id="1" parent="0" />
        <mxCell id="22" value="&lt;p style=&quot;margin: 0px; margin-top: 4px; text-align: center; text-decoration: underline;&quot;&gt;&lt;strong&gt;users&lt;/strong&gt;&lt;/p&gt;&lt;hr&gt;&lt;p style=&quot;margin: 0px; margin-left: 8px;&quot;&gt;PK: ID : BIGINT&lt;/p&gt;&lt;p style=&quot;margin: 0px; margin-left: 8px;&quot;&gt;ENABLED: BOOLEAN&lt;/p&gt;&lt;p style=&quot;margin: 0px; margin-left: 8px;&quot;&gt;CREATED_AT: TIMESTAMP&lt;/p&gt;&lt;p style=&quot;margin: 0px; margin-left: 8px;&quot;&gt;UPDATED_AT: TIMESTAMP&lt;/p&gt;&lt;p style=&quot;margin: 0px; margin-left: 8px;&quot;&gt;USERNAME: VARCHAR(50) [UQ]&lt;/p&gt;&lt;p style=&quot;margin: 0px; margin-left: 8px;&quot;&gt;EMAIL: VARCHAR(100) [UQ]&lt;/p&gt;&lt;p style=&quot;margin: 0px; margin-left: 8px;&quot;&gt;PASSWORD_HASH: VARCHAR(255)&lt;/p&gt;&lt;p style=&quot;margin: 0px; margin-left: 8px;&quot;&gt;&lt;br&gt;&lt;/p&gt;" style="verticalAlign=top;align=left;overflow=fill;fontSize=20;fontFamily=Times New Roman;html=1;strokeColor=#6c8ebf;shadow=1;fillColor=#dae8fc;" parent="1" vertex="1">
          <mxGeometry x="680" y="70" width="350" height="240" as="geometry" />
        </mxCell>
        <mxCell id="26" value="&lt;p style=&quot;margin: 0px; margin-top: 4px; text-align: center; text-decoration: underline;&quot;&gt;&lt;b&gt;user_model_parameters&lt;/b&gt;&lt;/p&gt;&lt;hr&gt;&lt;p style=&quot;margin: 0px; margin-left: 8px;&quot;&gt;PK; ID: BIGINT&lt;/p&gt;&lt;p style=&quot;margin: 0px; margin-left: 8px;&quot;&gt;FK; USER_ID: BIGINT&lt;/p&gt;&lt;p style=&quot;margin: 0px; margin-left: 8px;&quot;&gt;FK; MODEL_ID: BIGINT&lt;/p&gt;&lt;p style=&quot;margin: 0px; margin-left: 8px;&quot;&gt;FK; PARAMETER_ID: BIGINT&lt;/p&gt;&lt;p style=&quot;margin: 0px; margin-left: 8px;&quot;&gt;VALUE: TEXT&lt;/p&gt;" style="verticalAlign=top;align=left;overflow=fill;fontSize=20;fontFamily=Times New Roman;html=1;strokeColor=#6c8ebf;shadow=1;fillColor=#dae8fc;" parent="1" vertex="1">
          <mxGeometry x="1239" y="90" width="290" height="180" as="geometry" />
        </mxCell>
        <mxCell id="27" value="&lt;p style=&quot;margin: 0px; margin-top: 4px; text-align: center; text-decoration: underline;&quot;&gt;&lt;strong&gt;reports&lt;/strong&gt;&lt;/p&gt;&lt;hr&gt;&lt;p style=&quot;margin: 0px; margin-left: 8px;&quot;&gt;PK; ID: BIGINT&lt;/p&gt;&lt;p style=&quot;margin: 0px; margin-left: 8px;&quot;&gt;FK; USER_ID: BIGINT&lt;/p&gt;&lt;p style=&quot;margin: 0px; margin-left: 8px;&quot;&gt;FK; MODEL_ID: BIGINT&lt;/p&gt;&lt;p style=&quot;margin: 0px; margin-left: 8px;&quot;&gt;CREATED_AT: TIMESTAMP&lt;/p&gt;&lt;p style=&quot;margin: 0px; margin-left: 8px;&quot;&gt;PARAMS: TEXT&lt;/p&gt;&lt;p style=&quot;margin: 0px; margin-left: 8px;&quot;&gt;RESULT: TEXT&lt;/p&gt;&lt;p style=&quot;margin: 0px; margin-left: 8px;&quot;&gt;LLM_MESSAGE: TEXT&lt;/p&gt;&lt;p style=&quot;margin: 0px; margin-left: 8px;&quot;&gt;NAME: VARCHAR(255)&lt;/p&gt;&lt;p style=&quot;margin: 0px; margin-left: 8px;&quot;&gt;MODEL_NAME:&amp;nbsp;&lt;span style=&quot;background-color: transparent; color: light-dark(rgb(0, 51, 102), rgb(161, 205, 249));&quot;&gt;VARCHAR(255)&lt;/span&gt;&lt;/p&gt;&lt;p style=&quot;margin: 0px; margin-left: 8px;&quot;&gt;&lt;span style=&quot;background-color: transparent; color: light-dark(rgb(0, 51, 102), rgb(161, 205, 249));&quot;&gt;PARH:&amp;nbsp;&lt;/span&gt;&lt;span style=&quot;background-color: transparent; color: light-dark(rgb(0, 51, 102), rgb(161, 205, 249));&quot;&gt;VARCHAR(255)&lt;/span&gt;&lt;/p&gt;&lt;p style=&quot;margin: 0px; margin-left: 8px;&quot;&gt;&lt;span style=&quot;background-color: transparent; color: light-dark(rgb(0, 51, 102), rgb(161, 205, 249));&quot;&gt;LANGUAGE: VARCHAR(10)&lt;/span&gt;&lt;/p&gt;" style="verticalAlign=top;align=left;overflow=fill;fontSize=20;fontFamily=Times New Roman;html=1;strokeColor=#6c8ebf;shadow=1;fillColor=#dae8fc;" parent="1" vertex="1">
          <mxGeometry x="200" y="710" width="310" height="330" as="geometry" />
        </mxCell>
        <mxCell id="28" value="&lt;p style=&quot;margin: 0px; margin-top: 4px; text-align: center; text-decoration: underline;&quot;&gt;&lt;strong&gt;documents&lt;/strong&gt;&lt;/p&gt;&lt;hr&gt;&lt;p style=&quot;margin: 0px; margin-left: 8px;&quot;&gt;PK; ID: BIGINT&lt;/p&gt;&lt;p style=&quot;margin: 0px; margin-left: 8px;&quot;&gt;FK; USER_ID: BIGINT&lt;/p&gt;&lt;p style=&quot;margin: 0px; margin-left: 8px;&quot;&gt;UPLADET_AT: TIMESTAMP&lt;/p&gt;&lt;p style=&quot;margin: 0px; margin-left: 8px;&quot;&gt;NAME: VARCHAR(255)&lt;/p&gt;&lt;p style=&quot;margin: 0px; margin-left: 8px;&quot;&gt;PATH: VARCHAR(1024)&lt;/p&gt;&lt;p style=&quot;margin: 0px; margin-left: 8px;&quot;&gt;&lt;br&gt;&lt;/p&gt;" style="verticalAlign=top;align=left;overflow=fill;fontSize=20;fontFamily=Times New Roman;html=1;strokeColor=#6c8ebf;shadow=1;fillColor=#dae8fc;" parent="1" vertex="1">
          <mxGeometry x="1239" y="720" width="271" height="190" as="geometry" />
        </mxCell>
        <mxCell id="30" value="&lt;p style=&quot;margin: 0px; margin-top: 4px; text-align: center; text-decoration: underline;&quot;&gt;&lt;strong&gt;economic_model&lt;/strong&gt;&lt;/p&gt;&lt;hr&gt;&lt;p style=&quot;margin: 0px; margin-left: 8px;&quot;&gt;PK; ID: BIGINT&lt;/p&gt;&lt;p style=&quot;margin: 0px; margin-left: 8px;&quot;&gt;DESCRIPTION: TEXT&lt;/p&gt;&lt;p style=&quot;margin: 0px; margin-left: 8px;&quot;&gt;CREATED_AT: TIMESTAMP&lt;/p&gt;&lt;p style=&quot;margin: 0px; margin-left: 8px;&quot;&gt;UPDATED_AT:&amp;nbsp;&lt;span style=&quot;background-color: transparent; color: light-dark(rgb(0, 51, 102), rgb(161, 205, 249));&quot;&gt;TIMESTAMP&lt;/span&gt;&lt;/p&gt;&lt;p style=&quot;margin: 0px; margin-left: 8px;&quot;&gt;FORMULA: TEXT&lt;/p&gt;&lt;p style=&quot;margin: 0px; margin-left: 8px;&quot;&gt;MODEL_TYPE: VARCHAR(100)&lt;/p&gt;&lt;p style=&quot;margin: 0px; margin-left: 8px;&quot;&gt;NAME: VARCHAR(255)&lt;/p&gt;" style="verticalAlign=top;align=left;overflow=fill;fontSize=20;fontFamily=Times New Roman;html=1;strokeColor=#6c8ebf;shadow=1;fillColor=#dae8fc;" parent="1" vertex="1">
          <mxGeometry x="700" y="810" width="300" height="230" as="geometry" />
        </mxCell>
        <mxCell id="31" value="&lt;p style=&quot;margin: 0px; margin-top: 4px; text-align: center; text-decoration: underline;&quot;&gt;&lt;strong&gt;refresh_tokens&lt;/strong&gt;&lt;/p&gt;&lt;hr&gt;&lt;p style=&quot;margin: 0px; margin-left: 8px;&quot;&gt;PK; ID: BIGINT&lt;/p&gt;&lt;p style=&quot;margin: 0px; margin-left: 8px;&quot;&gt;FK; USER_ID: BIGINT&lt;/p&gt;&lt;p style=&quot;margin: 0px; margin-left: 8px;&quot;&gt;EXPIRY_DATE: TIMESTAMP&lt;/p&gt;&lt;p style=&quot;margin: 0px; margin-left: 8px;&quot;&gt;CREATED_AT: TIMESTAMP&lt;/p&gt;&lt;p style=&quot;margin: 0px; margin-left: 8px;&quot;&gt;TOKEN: VARCHAR(512) [UQ]&lt;/p&gt;" style="verticalAlign=top;align=left;overflow=fill;fontSize=20;fontFamily=Times New Roman;html=1;strokeColor=#6c8ebf;shadow=1;fillColor=#dae8fc;" parent="1" vertex="1">
          <mxGeometry x="174" y="20" width="312" height="180" as="geometry" />
        </mxCell>
        <mxCell id="32" value="&lt;p style=&quot;margin: 0px; margin-top: 4px; text-align: center; text-decoration: underline;&quot;&gt;&lt;strong&gt;model_result&lt;/strong&gt;&lt;/p&gt;&lt;hr&gt;&lt;p style=&quot;margin: 0px; margin-left: 8px;&quot;&gt;PK; ID: BIGINT&lt;/p&gt;&lt;p style=&quot;margin: 0px; margin-left: 8px;&quot;&gt;FK; MODEL_ID: BIGINT&lt;/p&gt;&lt;p style=&quot;margin: 0px; margin-left: 8px;&quot;&gt;RESULT_DATA: TEXT&lt;/p&gt;&lt;p style=&quot;margin: 0px; margin-left: 8px;&quot;&gt;CALCULATED_AT: TIMESTAMP&lt;/p&gt;&lt;p style=&quot;margin: 0px; margin-left: 8px;&quot;&gt;FK; USER_ID: BIGINT&lt;/p&gt;&lt;p style=&quot;margin: 0px; margin-left: 8px;&quot;&gt;RESULT_TYPE: VARCHAR(100)&lt;/p&gt;" style="verticalAlign=top;align=left;overflow=fill;fontSize=20;fontFamily=Times New Roman;html=1;strokeColor=#6c8ebf;shadow=1;fillColor=#dae8fc;" parent="1" vertex="1">
          <mxGeometry x="700" y="430" width="310" height="210" as="geometry" />
        </mxCell>
        <mxCell id="33" value="&lt;p style=&quot;margin: 0px; margin-top: 4px; text-align: center; text-decoration: underline;&quot;&gt;&lt;strong&gt;verification_token&lt;/strong&gt;&lt;/p&gt;&lt;hr&gt;&lt;p style=&quot;margin: 0px; margin-left: 8px;&quot;&gt;PK; ID: BIGINT&lt;/p&gt;&lt;p style=&quot;margin: 0px; margin-left: 8px;&quot;&gt;FK; USER_ID: BIGINT&lt;/p&gt;&lt;p style=&quot;margin: 0px; margin-left: 8px;&quot;&gt;EXPIRES_AT: TIMESTAMP&lt;/p&gt;&lt;p style=&quot;margin: 0px; margin-left: 8px;&quot;&gt;CODE: VARCHAR(6)&lt;/p&gt;" style="verticalAlign=top;align=left;overflow=fill;fontSize=20;fontFamily=Times New Roman;html=1;strokeColor=#6c8ebf;shadow=1;fillColor=#dae8fc;" parent="1" vertex="1">
          <mxGeometry x="133" y="489" width="280" height="160" as="geometry" />
        </mxCell>
        <mxCell id="34" value="&lt;p style=&quot;margin: 0px ; margin-top: 4px ; text-align: center ; text-decoration: underline&quot;&gt;&lt;b&gt;password_reset_token&lt;/b&gt;&lt;/p&gt;&lt;hr&gt;&lt;p style=&quot;margin: 0px ; margin-left: 8px&quot;&gt;PK; ID: BIGINT&lt;/p&gt;&lt;p style=&quot;margin: 0px ; margin-left: 8px&quot;&gt;FK; USER_ID: BIGINT&lt;/p&gt;&lt;p style=&quot;margin: 0px ; margin-left: 8px&quot;&gt;EXPIRES_AT: TIMESTAMP&lt;/p&gt;&lt;p style=&quot;margin: 0px ; margin-left: 8px&quot;&gt;CODE: VARCHAR(6)&lt;/p&gt;" style="verticalAlign=top;align=left;overflow=fill;fontSize=20;fontFamily=Times New Roman;html=1;strokeColor=#6c8ebf;shadow=1;fillColor=#dae8fc;" parent="1" vertex="1">
          <mxGeometry x="133" y="280" width="280" height="150" as="geometry" />
        </mxCell>
        <mxCell id="35" value="&lt;p style=&quot;margin: 0px; margin-top: 4px; text-align: center; text-decoration: underline;&quot;&gt;&lt;strong&gt;model_parameters&lt;/strong&gt;&lt;/p&gt;&lt;hr&gt;&lt;p style=&quot;margin: 0px; margin-left: 8px;&quot;&gt;PK; ID: BIGINT&lt;/p&gt;&lt;p style=&quot;margin: 0px; margin-left: 8px;&quot;&gt;PARAM_VALUE: TEXT&lt;/p&gt;&lt;p style=&quot;margin: 0px; margin-left: 8px;&quot;&gt;DESCRIPTION: TEXT&lt;/p&gt;&lt;p style=&quot;margin: 0px; margin-left: 8px;&quot;&gt;CUSTOM_ORDER: INTEGER&lt;/p&gt;&lt;p style=&quot;margin: 0px; margin-left: 8px;&quot;&gt;PARAM_NAME: VARCHAR(100)&lt;/p&gt;&lt;p style=&quot;margin: 0px; margin-left: 8px;&quot;&gt;PARAM_TYPE: VARCHAR(50)&lt;/p&gt;&lt;p style=&quot;margin: 0px; margin-left: 8px;&quot;&gt;DISPLAY_NAME: VARCHAR(255)&lt;/p&gt;&lt;p style=&quot;margin: 0px; margin-left: 8px;&quot;&gt;&lt;br&gt;&lt;/p&gt;" style="verticalAlign=top;align=left;overflow=fill;fontSize=20;fontFamily=Times New Roman;html=1;strokeColor=#6c8ebf;shadow=1;fillColor=#dae8fc;" parent="1" vertex="1">
          <mxGeometry x="1190" y="370" width="340" height="240" as="geometry" />
        </mxCell>
        <mxCell id="nApAKDOfuFkK6AgpzJe1-119" value="" style="edgeStyle=entityRelationEdgeStyle;fontSize=20;html=1;endArrow=ERzeroToMany;startArrow=ERmandOne;rounded=0;exitX=0;exitY=0.25;exitDx=0;exitDy=0;entryX=1;entryY=0.25;entryDx=0;entryDy=0;fontFamily=Times New Roman;fillColor=#dae8fc;strokeColor=#000000;" edge="1" parent="1" source="22" target="31">
          <mxGeometry width="100" height="100" relative="1" as="geometry">
            <mxPoint x="486" y="420" as="sourcePoint" />
            <mxPoint x="586" y="320" as="targetPoint" />
          </mxGeometry>
        </mxCell>
        <mxCell id="nApAKDOfuFkK6AgpzJe1-121" value="" style="edgeStyle=entityRelationEdgeStyle;fontSize=20;html=1;endArrow=ERzeroToMany;startArrow=ERmandOne;rounded=0;exitX=-0.005;exitY=0.364;exitDx=0;exitDy=0;entryX=1;entryY=0.25;entryDx=0;entryDy=0;exitPerimeter=0;fontFamily=Times New Roman;fillColor=#dae8fc;strokeColor=#000000;" edge="1" parent="1" source="22" target="34">
          <mxGeometry width="100" height="100" relative="1" as="geometry">
            <mxPoint x="794" y="385" as="sourcePoint" />
            <mxPoint x="600" y="320" as="targetPoint" />
          </mxGeometry>
        </mxCell>
        <mxCell id="nApAKDOfuFkK6AgpzJe1-122" value="" style="edgeStyle=entityRelationEdgeStyle;fontSize=20;html=1;endArrow=ERzeroToMany;startArrow=ERmandOne;rounded=0;exitX=-0.014;exitY=0.556;exitDx=0;exitDy=0;entryX=0.989;entryY=0.381;entryDx=0;entryDy=0;exitPerimeter=0;entryPerimeter=0;fontFamily=Times New Roman;fillColor=#dae8fc;strokeColor=#000000;" edge="1" parent="1" source="22" target="33">
          <mxGeometry width="100" height="100" relative="1" as="geometry">
            <mxPoint x="614" y="290" as="sourcePoint" />
            <mxPoint x="420" y="225" as="targetPoint" />
          </mxGeometry>
        </mxCell>
        <mxCell id="nApAKDOfuFkK6AgpzJe1-124" value="" style="edgeStyle=entityRelationEdgeStyle;fontSize=20;html=1;endArrow=ERzeroToMany;startArrow=ERmandOne;rounded=0;exitX=1.006;exitY=0.101;exitDx=0;exitDy=0;entryX=-0.008;entryY=0.126;entryDx=0;entryDy=0;exitPerimeter=0;entryPerimeter=0;fontFamily=Times New Roman;fillColor=#dae8fc;strokeColor=#000000;" edge="1" parent="1" source="22" target="26">
          <mxGeometry width="100" height="100" relative="1" as="geometry">
            <mxPoint x="944" y="455" as="sourcePoint" />
            <mxPoint x="750" y="390" as="targetPoint" />
          </mxGeometry>
        </mxCell>
        <mxCell id="nApAKDOfuFkK6AgpzJe1-125" value="" style="edgeStyle=entityRelationEdgeStyle;fontSize=20;html=1;endArrow=ERzeroToMany;startArrow=ERmandOne;rounded=0;entryX=0.997;entryY=0.181;entryDx=0;entryDy=0;entryPerimeter=0;exitX=0.008;exitY=0.793;exitDx=0;exitDy=0;exitPerimeter=0;fontFamily=Times New Roman;fillColor=#dae8fc;strokeColor=#000000;" edge="1" parent="1" source="22" target="27">
          <mxGeometry width="100" height="100" relative="1" as="geometry">
            <mxPoint x="670" y="280" as="sourcePoint" />
            <mxPoint x="730" y="727" as="targetPoint" />
            <Array as="points">
              <mxPoint x="630" y="510" />
            </Array>
          </mxGeometry>
        </mxCell>
        <mxCell id="nApAKDOfuFkK6AgpzJe1-126" value="" style="edgeStyle=entityRelationEdgeStyle;fontSize=20;html=1;endArrow=ERzeroToMany;startArrow=ERmandOne;rounded=0;exitX=1.011;exitY=0.851;exitDx=0;exitDy=0;exitPerimeter=0;fontFamily=Times New Roman;fillColor=#dae8fc;strokeColor=#000000;" edge="1" parent="1" source="22">
          <mxGeometry width="100" height="100" relative="1" as="geometry">
            <mxPoint x="915" y="500" as="sourcePoint" />
            <mxPoint x="710" y="450" as="targetPoint" />
          </mxGeometry>
        </mxCell>
        <mxCell id="nApAKDOfuFkK6AgpzJe1-127" value="" style="edgeStyle=entityRelationEdgeStyle;fontSize=20;html=1;endArrow=ERzeroToMany;startArrow=ERmandOne;rounded=0;exitX=-0.014;exitY=0.556;exitDx=0;exitDy=0;entryX=0.009;entryY=0.204;entryDx=0;entryDy=0;exitPerimeter=0;entryPerimeter=0;fontFamily=Times New Roman;fillColor=#dae8fc;strokeColor=#000000;" edge="1" parent="1" target="28">
          <mxGeometry width="100" height="100" relative="1" as="geometry">
            <mxPoint x="1035" y="220" as="sourcePoint" />
            <mxPoint x="770" y="567" as="targetPoint" />
          </mxGeometry>
        </mxCell>
        <mxCell id="nApAKDOfuFkK6AgpzJe1-128" value="" style="edgeStyle=entityRelationEdgeStyle;fontSize=20;html=1;endArrow=ERzeroToOne;startArrow=ERmandOne;rounded=0;fontFamily=Times New Roman;fillColor=#dae8fc;strokeColor=#000000;" edge="1" parent="1">
          <mxGeometry width="100" height="100" relative="1" as="geometry">
            <mxPoint x="1000" y="865" as="sourcePoint" />
            <mxPoint x="700" y="600" as="targetPoint" />
          </mxGeometry>
        </mxCell>
        <mxCell id="nApAKDOfuFkK6AgpzJe1-129" value="" style="edgeStyle=entityRelationEdgeStyle;fontSize=20;html=1;endArrow=ERzeroToMany;startArrow=ERmandOne;rounded=0;exitX=0;exitY=0.25;exitDx=0;exitDy=0;entryX=1.007;entryY=0.311;entryDx=0;entryDy=0;entryPerimeter=0;fontFamily=Times New Roman;fillColor=#dae8fc;strokeColor=#000000;" edge="1" parent="1" source="30" target="27">
          <mxGeometry width="100" height="100" relative="1" as="geometry">
            <mxPoint x="670" y="600" as="sourcePoint" />
            <mxPoint x="770" y="500" as="targetPoint" />
          </mxGeometry>
        </mxCell>
        <mxCell id="nApAKDOfuFkK6AgpzJe1-130" value="" style="edgeStyle=entityRelationEdgeStyle;fontSize=20;html=1;endArrow=ERzeroToMany;startArrow=ERmandOne;rounded=0;exitX=1.01;exitY=0.453;exitDx=0;exitDy=0;entryX=0;entryY=0.5;entryDx=0;entryDy=0;exitPerimeter=0;fontFamily=Times New Roman;fillColor=#dae8fc;strokeColor=#000000;" edge="1" parent="1" source="30" target="35">
          <mxGeometry width="100" height="100" relative="1" as="geometry">
            <mxPoint x="915" y="940" as="sourcePoint" />
            <mxPoint x="650" y="1287" as="targetPoint" />
          </mxGeometry>
        </mxCell>
        <mxCell id="nApAKDOfuFkK6AgpzJe1-132" value="" style="edgeStyle=entityRelationEdgeStyle;fontSize=12;html=1;endArrow=ERzeroToMany;startArrow=ERmandOne;rounded=0;strokeColor=#000000;" edge="1" parent="1">
          <mxGeometry width="100" height="100" relative="1" as="geometry">
            <mxPoint x="1530" y="410" as="sourcePoint" />
            <mxPoint x="1240" y="250" as="targetPoint" />
          </mxGeometry>
        </mxCell>
        <mxCell id="nApAKDOfuFkK6AgpzJe1-133" value="" style="edgeStyle=entityRelationEdgeStyle;fontSize=20;html=1;endArrow=ERzeroToMany;startArrow=ERmandOne;rounded=0;exitX=1.005;exitY=0.875;exitDx=0;exitDy=0;exitPerimeter=0;fontFamily=Times New Roman;fillColor=#dae8fc;strokeColor=#000000;" edge="1" parent="1" source="30">
          <mxGeometry width="100" height="100" relative="1" as="geometry">
            <mxPoint x="1003" y="974" as="sourcePoint" />
            <mxPoint x="1240" y="156.92307692307693" as="targetPoint" />
            <Array as="points">
              <mxPoint x="1020" y="980" />
            </Array>
          </mxGeometry>
        </mxCell>
      </root>
    </mxGraphModel>
  </diagram>
</mxfile>
